# xmcd
#
# Track frame offsets: 
#        150
#        10131
#        20701
#        34811
#        45888
#        56854
#        68761
#        79640
#        91822
#        157204
#        169473
#        178473
#        188157
#
# Disc length: 2663 seconds
#
# Revision: 0
# Processed by: cddbd v1.5.2PL0 Copyright (c) Steve Scherf et al.
# Submitted via: ExactAudioCopy v0.99pb4
#
DISCID=ac0a650d
DTITLE=Jim Reeves and The Blue Boys - I Fall To Pieces
DYEAR=2008
DGENRE=Country
TTITLE0=When Two Worlds Collide
TTITLE1=Don't Let Me Cross Over
TTITLE2=I Fall To Pieces
TTITLE3=I'm A Fool To Care
TTITLE4=I've Enjoyed As Much Of This As I Can Stand
TTITLE5=Just Out Of Reach
TTITLE6=I Guess I'm Crazy
TTITLE7=A Fallen Star
TTITLE8=Medley
TTITLE9=When You Are Gone?
TTITLE10=Welcome To My World
TTITLE11=If Heartache Is The Fashion
TTITLE12=I Won't Forget You
EXTD=
EXTT0=
EXTT1=
EXTT2=
EXTT3=
EXTT4=
EXTT5=
EXTT6=
EXTT7=
EXTT8=
EXTT9=
EXTT10=
EXTT11=
EXTT12=
PLAYORDER=
